<svg width="166" height="166" viewBox="0 0 166 166" fill="none" xmlns="http://www.w3.org/2000/svg">
  <!-- Background Circle -->
  <circle cx="83" cy="83" r="83" fill="#2563eb"/>
  
  <!-- Connection Icon -->
  <g transform="translate(45, 60)">
    <!-- Left Person -->
    <circle cx="15" cy="15" r="12" fill="white"/>
    <rect x="8" y="30" width="14" height="16" rx="7" fill="white"/>
    
    <!-- Connection Line -->
    <line x1="27" y1="25" x2="49" y2="25" stroke="white" stroke-width="3" stroke-linecap="round"/>
    <circle cx="38" cy="25" r="3" fill="#10b981"/>
    
    <!-- Right Person -->
    <circle cx="61" cy="15" r="12" fill="white"/>
    <rect x="54" y="30" width="14" height="16" rx="7" fill="white"/>
  </g>
  
  <!-- Letter "K" -->
  <g transform="translate(65, 95)">
    <path d="M5 5 L5 35 M5 20 L20 5 M5 20 L20 35" stroke="white" stroke-width="4" stroke-linecap="round" stroke-linejoin="round" fill="none"/>
  </g>
  
  <!-- Letter "C" -->
  <g transform="translate(95, 95)">
    <path d="M20 10 C15 5, 5 5, 5 20 C5 35, 15 35, 20 30" stroke="white" stroke-width="4" stroke-linecap="round" fill="none"/>
  </g>
</svg>
